<?xml version="1.0" encoding="UTF-8" ?>
<!DOCTYPE svg PUBLIC "-//W3C//DTD SVG 1.1//EN" "http://www.w3.org/Graphics/SVG/1.1/DTD/svg11.dtd">
<svg width="192pt" height="192pt" viewBox="0 0 192 192" version="1.1" xmlns="http://www.w3.org/2000/svg">
<g id="#4384faff">
<path fill="#4384fa" opacity="1.00" d=" M 78.50 10.66 C 96.38 9.60 114.58 9.52 132.14 13.45 C 145.30 16.35 158.23 22.61 166.65 33.42 C 174.84 43.84 178.62 56.98 180.40 69.93 C 182.38 85.49 182.39 101.28 181.02 116.89 C 179.32 133.81 174.68 151.77 161.86 163.80 C 148.28 176.54 129.04 180.29 111.07 181.50 C 91.16 182.39 70.68 182.47 51.53 176.22 C 38.90 172.16 27.42 163.77 20.95 152.04 C 12.26 136.58 10.50 118.45 10.10 101.04 C 9.89 83.18 10.56 64.81 17.10 47.96 C 21.54 36.28 30.06 26.04 41.22 20.27 C 52.64 14.06 65.68 11.76 78.50 10.66 M 63.71 54.40 C 58.15 72.07 60.72 90.77 60.14 108.96 C 55.56 110.26 49.77 110.60 47.15 115.21 C 43.97 120.03 46.31 127.24 51.68 129.32 C 54.38 130.78 57.43 130.04 60.21 129.29 C 60.23 132.47 61.13 136.16 64.14 137.80 C 67.44 139.59 71.36 139.32 74.99 139.39 C 88.65 139.26 102.31 139.54 115.97 139.37 C 119.86 139.43 124.61 138.35 126.20 134.33 C 127.87 128.70 126.98 122.75 127.23 116.98 C 127.49 109.09 127.00 101.18 127.46 93.31 C 130.20 91.49 134.01 91.87 137.22 91.22 C 142.20 89.05 145.85 83.50 144.24 78.01 C 142.90 72.34 136.92 69.19 131.38 69.68 C 125.93 69.86 120.48 69.75 115.03 69.76 C 109.08 64.17 103.61 57.95 96.88 53.27 C 96.00 54.22 94.83 55.03 94.51 56.36 C 93.15 60.76 92.39 65.33 91.28 69.81 C 88.19 69.66 84.50 70.38 82.06 67.97 C 76.94 63.40 72.24 58.39 67.03 53.92 C 66.15 52.90 64.20 53.09 63.71 54.40 Z" />
</g>
<g id="#ffffffff">
<path fill="#ffffff" opacity="1.00" d=" M 63.71 54.40 C 64.20 53.09 66.15 52.90 67.03 53.92 C 72.24 58.39 76.94 63.40 82.06 67.97 C 84.50 70.38 88.19 69.66 91.28 69.81 C 99.20 69.75 107.11 69.79 115.03 69.76 C 120.48 69.75 125.93 69.86 131.38 69.68 C 130.07 77.35 132.18 85.29 137.22 91.22 C 134.01 91.87 130.20 91.49 127.46 93.31 C 127.00 101.18 127.49 109.09 127.23 116.98 C 126.98 122.75 127.87 128.70 126.20 134.33 C 124.61 138.35 119.86 139.43 115.97 139.37 C 102.31 139.54 88.65 139.26 74.99 139.39 C 71.36 139.32 67.44 139.59 64.14 137.80 C 61.13 136.16 60.23 132.47 60.21 129.29 C 60.03 122.52 60.20 115.74 60.14 108.96 C 60.72 90.77 58.15 72.07 63.71 54.40 M 92.26 80.39 C 89.64 81.28 88.79 85.17 90.87 87.05 C 92.70 89.51 96.76 88.56 97.79 85.83 C 99.63 82.60 95.42 78.82 92.26 80.39 Z" />
</g>
<g id="#b6cffdff">
<path fill="#b6cffd" opacity="1.00" d=" M 94.51 56.36 C 94.83 55.03 96.00 54.22 96.88 53.27 C 103.61 57.95 109.08 64.17 115.03 69.76 C 107.11 69.79 99.20 69.75 91.28 69.81 C 92.39 65.33 93.15 60.76 94.51 56.36 Z" />
<path fill="#b6cffd" opacity="1.00" d=" M 47.15 115.21 C 49.77 110.60 55.56 110.26 60.14 108.96 C 60.20 115.74 60.03 122.52 60.21 129.29 C 57.43 130.04 54.38 130.78 51.68 129.32 C 46.31 127.24 43.97 120.03 47.15 115.21 Z" />
</g>
<g id="#35364bff">
<path fill="#35364b" opacity="1.00" d=" M 131.38 69.68 C 136.92 69.19 142.90 72.34 144.24 78.01 C 145.85 83.50 142.20 89.05 137.22 91.22 C 132.18 85.29 130.07 77.35 131.38 69.68 Z" />
<path fill="#35364b" opacity="1.00" d=" M 92.26 80.39 C 95.42 78.82 99.63 82.60 97.79 85.83 C 96.76 88.56 92.70 89.51 90.87 87.05 C 88.79 85.17 89.64 81.28 92.26 80.39 Z" />
</g>
</svg>
